<?xml version="1.0" encoding="utf-8"?>
<!-- Generator: Adobe Illustrator 25.0.0, SVG Export Plug-In . SVG Version: 6.00 Build 0)  -->
<svg version="1.1" id="Layer_1" xmlns="http://www.w3.org/2000/svg" xmlns:xlink="http://www.w3.org/1999/xlink" x="0px" y="0px"
	 width="250px" height="250px" viewBox="0 0 250 250" style="enable-background:new 0 0 250 250;" xml:space="preserve">
<style type="text/css">
	.st0{fill-rule:evenodd;clip-rule:evenodd;fill:#FFFFFF;}
</style>
<g>
	<path class="st0" d="M103.4,60.3h16.5v62.4l11.3,0.1l0-71.4h5.6l5.4,0.5l6.4,1.1l5.7,1.6l6.5,2.3l4.9,2.2l5.2,2.8l4.1,2.5l3.9,2.8
		l3.4,2.8l2.5,2.1l2.9,2.8l2.7,3l2.3,2.8l2.4,2.9l1.8,2.8l1.4,2.3l1.8,3.2l1.6,3l1.2,2.9l1.3,3.3l1.3,3.6l0.9,3.5l0.9,3.4l0.6,3.4
		l0.5,3.5l0.3,3.5l0.2,4.4l0.1,4l-0.2,3.9l-0.6,3.6l-0.6,3.6l-0.7,3.2l-0.6,3.7l-0.7,2.2l-0.9,2.4l-1.1,2.8l-1.4,3.1l-1.6,3.3
		l-1.7,3l-2.6,4.1l-1.7,2.4l-2,2.6l-2,2.3l-2.3,2.5l-3,3.1H161l2.6-1.4l1.7-0.9l1.7-1.2l1.8-1.3l2.2-1.6l2.2-1.8l2.6-2.4l2.3-2.4
		l1.9-2.1l1.6-2l1.2-1.6l1.3-1.8l1.7-2.7l1.3-2.3l1.9-3.6l1.3-2.9l0.9-2.3l1-2.8l1-3.5l0.8-3.6l0.3-1.6l-48.4,0l0,45.8h-14.5v-45.7
		H120l-0.1,62.1L68.4,85l-2.8,4.5l-1.8,3.1l-1.5,3.2l-1.7,4l-1.2,3.3l-1.2,3.9l-0.8,2.9l-0.5,2.4l-0.5,2.8l-0.4,3l-0.4,3.6l-0.2,4.4
		l0.1,5l0.5,5.1l0.6,4.1l0.7,3.5l1.1,4.1l1.6,4.9l1.4,3.4l1.8,4.1l1.8,3.2l2.1,3.6l2.4,3.5l2.8,3.8l2.9,3.4l2.5,2.6l2,1.9H60.4
		l-2.7-3.6l-2.7-4l-1.8-3l-1.9-3.2l-2.1-4.2l-1.7-4.1l-1.7-4.5l-1.5-4.8l-0.9-3.9l-1-4.9l-0.7-4.9l-0.5-6.5v-5.4l0.3-5.5L42,114
		l0.8-4.6l0.9-3.8l1.3-4.5l1.6-4.7l1.8-4.5l2.4-5.1l2.1-3.8l1.9-3.3l3.2-4.6l3.1-4.1l4.4-4.9l6.4-6.1l31.5,69.4L103.4,60.3
		L103.4,60.3z M228.5,211.8c2.3,0,4.5,0.6,6.7,1.8c2.2,1.2,3.9,2.9,5.1,5.1c1.2,2.2,1.8,4.5,1.8,6.9c0,2.4-0.6,4.6-1.8,6.8
		c-1.2,2.2-2.9,3.9-5.1,5.1c-2.2,1.2-4.4,1.8-6.8,1.8c-2.4,0-4.6-0.6-6.8-1.8c-2.2-1.2-3.9-2.9-5.1-5.1c-1.2-2.2-1.8-4.4-1.8-6.8
		c0-2.4,0.6-4.7,1.8-6.9c1.2-2.2,2.9-3.9,5.1-5.1C224,212.3,226.2,211.8,228.5,211.8L228.5,211.8z M228.5,214
		c-1.9,0-3.8,0.5-5.6,1.5c-1.8,1-3.2,2.4-4.3,4.2c-1,1.8-1.5,3.7-1.5,5.7c0,2,0.5,3.9,1.5,5.7c1,1.8,2.4,3.2,4.2,4.2
		c1.8,1,3.7,1.5,5.7,1.5c2,0,3.9-0.5,5.7-1.5c1.8-1,3.2-2.4,4.2-4.2c1-1.8,1.5-3.7,1.5-5.7c0-2-0.5-3.9-1.5-5.7
		c-1-1.8-2.4-3.2-4.3-4.2C232.3,214.5,230.4,214,228.5,214L228.5,214z M222.5,233v-14.7h5.1c1.7,0,3,0.1,3.8,0.4
		c0.8,0.3,1.4,0.7,1.8,1.4c0.5,0.7,0.7,1.4,0.7,2.2c0,1.1-0.4,2-1.2,2.8c-0.8,0.8-1.8,1.2-3.1,1.3c0.5,0.2,0.9,0.5,1.2,0.8
		c0.6,0.6,1.3,1.6,2.2,2.9l1.8,2.9H232l-1.3-2.3c-1-1.8-1.8-3-2.5-3.4c-0.4-0.3-1.1-0.5-1.9-0.5h-1.4v6.2H222.5L222.5,233z
		 M224.9,224.7h2.9c1.4,0,2.3-0.2,2.8-0.6c0.5-0.4,0.8-1,0.8-1.6c0-0.4-0.1-0.8-0.4-1.2c-0.2-0.3-0.6-0.6-1-0.8
		c-0.4-0.2-1.2-0.3-2.4-0.3h-2.7V224.7L224.9,224.7z M125,3.7c33.5,0,63.8,13.6,85.8,35.5c21.9,21.9,35.5,52.3,35.5,85.8
		s-13.6,63.8-35.5,85.8c-21.9,21.9-52.3,35.5-85.8,35.5s-63.8-13.6-85.8-35.5C17.3,188.8,3.7,158.5,3.7,125s13.6-63.8,35.5-85.8
		C61.2,17.3,91.5,3.7,125,3.7L125,3.7z M206.9,43.1c-21-21-49.9-33.9-81.9-33.9s-60.9,13-81.9,33.9C22.2,64.1,9.2,93,9.2,125
		c0,32,13,60.9,33.9,81.9c21,21,49.9,33.9,81.9,33.9s60.9-13,81.9-33.9c21-21,33.9-49.9,33.9-81.9C240.8,93,227.8,64.1,206.9,43.1
		L206.9,43.1z M125,19.4c29.2,0,55.6,11.8,74.7,30.9c19.1,19.1,30.9,45.5,30.9,74.7c0,29.2-11.8,55.6-30.9,74.7
		c-19.1,19.1-45.5,30.9-74.7,30.9c-29.2,0-55.6-11.8-74.7-30.9c-19.1-19.1-30.9-45.5-30.9-74.7c0-29.2,11.8-55.6,30.9-74.7
		C69.4,31.2,95.8,19.4,125,19.4L125,19.4z M195.8,54.2c-18.1-18.1-43.1-29.3-70.8-29.3S72.3,36.1,54.2,54.2
		C36.1,72.3,24.9,97.4,24.9,125c0,27.6,11.2,52.7,29.3,70.8c18.1,18.1,43.1,29.3,70.8,29.3s52.7-11.2,70.8-29.3
		c18.1-18.1,29.3-43.1,29.3-70.8C225.1,97.4,213.9,72.3,195.8,54.2L195.8,54.2z M194.9,122.8h-49.2l0-56.6l2,0.5l2.7,0.8l3.8,1.2
		l3.8,1.6l3.3,1.5l3.2,1.8l3.5,2.3l3.7,2.7l3.4,2.8l4,4l3.1,3.5l2,2.7l1.7,2.7l2,3.5l1.5,3l1.6,3.5l1.6,4.7l1.1,4l0.7,3.9
		L194.9,122.8L194.9,122.8z"/>
</g>
</svg>
